REM DIRINDEX 1\5,1\2\6,1\2\7,1\3\8,1\3\9,1\4\10,1\4\11,1\4\12
REM DIRNAME folder01,folder02,folder03,folder04,folder05,folder06,folder07,folder08,folder09,folder10,folder11,folder12
TITLE ""
FILE "EJE_DB3000_5th_6C_32.mp3" MP3
  TRACK 01 AUDIO
    TITLE "0:"
    INDEX 01 00:00:00
  TRACK 02 AUDIO
    TITLE "10:cjc026_11388"
    INDEX 01 00:00:05
  TRACK 03 AUDIO
    TITLE "0:"
    INDEX 01 00:01:03
  TRACK 04 AUDIO
    TITLE "11:cjc026_11389"
    INDEX 01 00:01:30
  TRACK 05 AUDIO
    TITLE "0:"
    INDEX 01 00:02:43
  TRACK 06 AUDIO
    TITLE "12:cjc026_11390"
    INDEX 01 00:02:69
  TRACK 07 AUDIO
    TITLE "0:"
    INDEX 01 00:03:66
  TRACK 08 AUDIO
    TITLE "10:cjc026_11391"
    INDEX 01 00:04:17
  TRACK 09 AUDIO
    TITLE "0:"
    INDEX 01 00:05:16
  TRACK 10 AUDIO
    TITLE "11:cjc026_11392"
    INDEX 01 00:05:44
  TRACK 11 AUDIO
    TITLE "0:"
    INDEX 01 00:06:63
  TRACK 12 AUDIO
    TITLE "12:cjc026_11393"
    INDEX 01 00:07:13
  TRACK 13 AUDIO
    TITLE "0:"
    INDEX 01 00:08:11
  TRACK 14 AUDIO
    TITLE "10:cjc026_11394"
    INDEX 01 00:08:38
  TRACK 15 AUDIO
    TITLE "0:"
    INDEX 01 00:09:40
  TRACK 16 AUDIO
    TITLE "11:cjc026_11395"
    INDEX 01 00:09:67
  TRACK 17 AUDIO
    TITLE "0:"
    INDEX 01 00:11:25
  TRACK 18 AUDIO
    TITLE "12:cjc026_11396"
    INDEX 01 00:11:50
  TRACK 19 AUDIO
    TITLE "0:"
    INDEX 01 00:12:52
  TRACK 20 AUDIO
    TITLE "10:cjc026_11397"
    INDEX 01 00:13:04
  TRACK 21 AUDIO
    TITLE "0:"
    INDEX 01 00:14:04
  TRACK 22 AUDIO
    TITLE "11:cjc026_11398"
    INDEX 01 00:14:33
  TRACK 23 AUDIO
    TITLE "0:"
    INDEX 01 00:16:26
  TRACK 24 AUDIO
    TITLE "12:cjc026_11399"
    INDEX 01 00:16:53
  TRACK 25 AUDIO
    TITLE "0:"
    INDEX 01 00:17:51
  TRACK 26 AUDIO
    TITLE "10:cjc026_11400"
    INDEX 01 00:18:07
  TRACK 27 AUDIO
    TITLE "0:"
    INDEX 01 00:19:05
  TRACK 28 AUDIO
    TITLE "11:cjc026_11401"
    INDEX 01 00:19:30
  TRACK 29 AUDIO
    TITLE "0:"
    INDEX 01 00:20:32
  TRACK 30 AUDIO
    TITLE "12:cjc026_11402"
    INDEX 01 00:20:59
  TRACK 31 AUDIO
    TITLE "0:"
    INDEX 01 00:21:58
  TRACK 32 AUDIO
    TITLE "10:cjc026_11403"
    INDEX 01 00:22:09
  TRACK 33 AUDIO
    TITLE "0:"
    INDEX 01 00:23:14
  TRACK 34 AUDIO
    TITLE "11:cjc026_11404"
    INDEX 01 00:23:38
  TRACK 35 AUDIO
    TITLE "0:"
    INDEX 01 00:24:53
  TRACK 36 AUDIO
    TITLE "12:cjc026_11405"
    INDEX 01 00:25:05
  TRACK 37 AUDIO
    TITLE "0:"
    INDEX 01 00:26:09
  TRACK 38 AUDIO
    TITLE "10:cjc026_11406"
    INDEX 01 00:26:34
  TRACK 39 AUDIO
    TITLE "0:"
    INDEX 01 00:27:32
  TRACK 40 AUDIO
    TITLE "11:cjc026_11407"
    INDEX 01 00:27:59
  TRACK 41 AUDIO
    TITLE "0:"
    INDEX 01 00:28:64
  TRACK 42 AUDIO
    TITLE "12:cjc026_11408"
    INDEX 01 00:29:15
  TRACK 43 AUDIO
    TITLE "0:"
    INDEX 01 00:30:12
  TRACK 44 AUDIO
    TITLE "10:cjc026_11409"
    INDEX 01 00:30:38
  TRACK 45 AUDIO
    TITLE "0:"
    INDEX 01 00:31:35
  TRACK 46 AUDIO
    TITLE "11:cjc026_11410"
    INDEX 01 00:31:67
  TRACK 47 AUDIO
    TITLE "0:"
    INDEX 01 00:32:60
  TRACK 48 AUDIO
    TITLE "12:cjc026_11411"
    INDEX 01 00:33:11
  TRACK 49 AUDIO
    TITLE "0:"
    INDEX 01 00:34:10
  TRACK 50 AUDIO
    TITLE "10:cjc026_11412"
    INDEX 01 00:34:38
  TRACK 51 AUDIO
    TITLE "0:"
    INDEX 01 00:35:41
  TRACK 52 AUDIO
    TITLE "11:cjc026_11413"
    INDEX 01 00:35:68
  TRACK 53 AUDIO
    TITLE "0:"
    INDEX 01 00:36:66
  TRACK 54 AUDIO
    TITLE "12:cjc026_11414"
    INDEX 01 00:37:16
  TRACK 55 AUDIO
    TITLE "0:"
    INDEX 01 00:38:20
  TRACK 56 AUDIO
    TITLE "10:cjc026_11415"
    INDEX 01 00:38:45
  TRACK 57 AUDIO
    TITLE "0:"
    INDEX 01 00:39:45
  TRACK 58 AUDIO
    TITLE "11:cjc026_11416"
    INDEX 01 00:39:70
  TRACK 59 AUDIO
    TITLE "0:"
    INDEX 01 00:41:00
  TRACK 60 AUDIO
    TITLE "12:cjc026_11417"
    INDEX 01 00:41:26
  TRACK 61 AUDIO
    TITLE "0:"
    INDEX 01 00:42:25
  TRACK 62 AUDIO
    TITLE "10:cjc026_11418"
    INDEX 01 00:42:53
  TRACK 63 AUDIO
    TITLE "0:"
    INDEX 01 00:43:50
  TRACK 64 AUDIO
    TITLE "11:cjc026_11419"
    INDEX 01 00:44:03
  TRACK 65 AUDIO
    TITLE "0:"
    INDEX 01 00:45:06
  TRACK 66 AUDIO
    TITLE "12:cjc026_11420"
    INDEX 01 00:45:33
  TRACK 67 AUDIO
    TITLE "0:"
    INDEX 01 00:46:31
  TRACK 68 AUDIO
    TITLE "10:cjc026_11421"
    INDEX 01 00:46:58
  TRACK 69 AUDIO
    TITLE "0:"
    INDEX 01 00:47:48
  TRACK 70 AUDIO
    TITLE "11:cjc026_11422"
    INDEX 01 00:48:00
  TRACK 71 AUDIO
    TITLE "0:"
    INDEX 01 00:48:73
  TRACK 72 AUDIO
    TITLE "12:cjc026_11423"
    INDEX 01 00:49:23
  TRACK 73 AUDIO
    TITLE "0:"
    INDEX 01 00:50:15
